<?xml version="1.0" encoding="UTF-8"?>
<svg version="1.1" xmlns="http://www.w3.org/2000/svg" width="500" height="500">
<path d="M0 0 C0.99 0.495 0.99 0.495 2 1 C2.15480082 22.34228167 2.30279846 43.68460122 2.4429636 65.02698421 C2.50821656 74.93931957 2.57559481 84.85163151 2.64819336 94.76391602 C2.7115541 103.41567908 2.77070623 112.06745959 2.82505554 120.71928412 C2.85390349 125.28922684 2.88468786 129.85913583 2.92053413 134.42902946 C3.07256812 153.98430894 3.09203395 173.46543726 2 193 C1.34 193.33 0.68 193.66 0 194 C-2.27075146 192.88724132 -4.39513838 191.72748142 -6.5625 190.4375 C-7.19438232 190.06906982 -7.82626465 189.70063965 -8.47729492 189.32104492 C-12.72561568 186.82149062 -16.83899696 184.16376048 -20.90625 181.37890625 C-25.7186905 178.20951913 -30.83887043 175.55156967 -36 173 C-36 172.34 -36 171.68 -36 171 C-36.54140625 170.89816406 -37.0828125 170.79632813 -37.640625 170.69140625 C-40.60596581 169.82242393 -43.05524946 168.44527709 -45.75 166.9375 C-46.73484375 166.38964844 -47.7196875 165.84179688 -48.734375 165.27734375 C-49.48203125 164.85582031 -50.2296875 164.43429687 -51 164 C-51 163.34 -51 162.68 -51 162 C-51.84316772 161.83479858 -51.84316772 161.83479858 -52.70336914 161.66625977 C-55.35171026 160.89796776 -57.37847467 159.75369921 -59.74609375 158.33984375 C-60.65963623 157.79730957 -61.57317871 157.25477539 -62.5144043 156.69580078 C-63.47902588 156.11556152 -64.44364746 155.53532227 -65.4375 154.9375 C-66.92213745 154.05167236 -66.92213745 154.05167236 -68.43676758 153.14794922 C-78.44611286 147.16379006 -88.39325294 141.09438559 -98.171875 134.73828125 C-101.24901647 132.84694429 -104.38489666 131.09742378 -107.54736328 129.35375977 C-111.7384507 127.04044305 -115.90396871 124.6837339 -120.0625 122.3125 C-120.92810547 121.82716797 -121.79371094 121.34183594 -122.68554688 120.84179688 C-123.50216797 120.37451172 -124.31878906 119.90722656 -125.16015625 119.42578125 C-125.89886963 119.00723877 -126.63758301 118.58869629 -127.39868164 118.1574707 C-127.9271167 117.77550537 -128.45555176 117.39354004 -129 117 C-129 116.34 -129 115.68 -129 115 C-129.52464844 114.90976562 -130.04929687 114.81953125 -130.58984375 114.7265625 C-133.85052367 113.74360226 -136.6412518 112.08510587 -139.5625 110.375 C-140.47926514 109.84193237 -140.47926514 109.84193237 -141.41455078 109.2980957 C-143.28092475 108.2062645 -145.14098338 107.10430248 -147 106 C-148.10988281 105.34644531 -149.21976563 104.69289063 -150.36328125 104.01953125 C-151.85408203 103.11267578 -151.85408203 103.11267578 -153.375 102.1875 C-154.71691406 101.37345703 -154.71691406 101.37345703 -156.0859375 100.54296875 C-156.71757812 100.03378906 -157.34921875 99.52460938 -158 99 C-158 98.01 -158 97.02 -158 96 C-155.60737529 94.30373621 -153.28428796 92.82717979 -150.75 91.375 C-150.06808594 90.96765625 -149.38617188 90.5603125 -148.68359375 90.140625 C-145.45686161 88.24844421 -142.68503496 86.78558523 -139 86 C-139 85.34 -139 84.68 -139 84 C-138.3915625 83.68289063 -137.783125 83.36578125 -137.15625 83.0390625 C-127.36123834 77.82465923 -117.79722498 72.06545134 -108.70703125 65.6953125 C-106 64 -106 64 -103 64 C-103 63.34 -103 62.68 -103 62 C-102.38511719 61.66226563 -101.77023438 61.32453125 -101.13671875 60.9765625 C-100.32847656 60.53054688 -99.52023438 60.08453125 -98.6875 59.625 C-97.88699219 59.18414062 -97.08648437 58.74328125 -96.26171875 58.2890625 C-94.46472057 57.26486665 -92.72099292 56.14732862 -91 55 C-90.01 55 -89.02 55 -88 55 C-88 54.34 -88 53.68 -88 53 C-86.58671871 52.18162558 -85.16921654 51.37053781 -83.75 50.5625 C-82.96109375 50.11003906 -82.1721875 49.65757812 -81.359375 49.19140625 C-79.21166532 48.10688398 -77.34794939 47.46851284 -75 47 C-75 46.34 -75 45.68 -75 45 C-74.42636719 44.70609375 -73.85273438 44.4121875 -73.26171875 44.109375 C-65.92916527 40.23725268 -58.96139279 35.88894826 -51.9909668 31.40332031 C-37.56820736 22.16193157 -37.56820736 22.16193157 -32 21 C-32 20.34 -32 19.68 -32 19 C-31.21496094 18.62488281 -30.42992187 18.24976563 -29.62109375 17.86328125 C-22.52029082 14.43160338 -22.52029082 14.43160338 -15.9375 10.125 C-13 8 -13 8 -10 8 C-10 7.34 -10 6.68 -10 6 C-7.8828125 4.45703125 -7.8828125 4.45703125 -5.125 2.8125 C-4.22007812 2.26207031 -3.31515625 1.71164062 -2.3828125 1.14453125 C-1.59648437 0.76683594 -0.81015625 0.38914062 0 0 Z " fill="#213A90" transform="translate(239,264)"/>
<path d="M0 0 C4.455 1.98 4.455 1.98 9 4 C9 4.66 9 5.32 9 6 C9.85851562 6.16048828 9.85851562 6.16048828 10.734375 6.32421875 C13.33212011 7.09906341 15.04339105 8.24485515 17.25 9.8125 C20.01004749 11.77173079 22.76560222 13.4166061 25.80078125 14.8984375 C30.01066939 16.96123368 33.96167607 19.3340643 37.9375 21.8125 C39.51890501 22.78877554 41.10097536 23.76397391 42.68359375 24.73828125 C43.5329248 25.26115723 44.38225586 25.7840332 45.25732422 26.32275391 C50.31706681 29.41697071 55.41035469 32.45531524 60.5 35.5 C67.9200689 39.94061206 75.32168761 44.40746923 82.6875 48.9375 C87.78555283 52.07175339 92.91382475 55.11985661 98.125 58.0625 C103.84210735 61.2936218 109.41217638 64.71535447 114.96704102 68.21679688 C121.29386889 72.20128739 127.69636053 76.05065662 134.11914062 79.87792969 C137.35420196 81.80788061 140.58296988 83.74831285 143.8125 85.6875 C145.04945084 86.42973471 146.2864292 87.17192355 147.5234375 87.9140625 C152.015625 90.609375 156.5078125 93.3046875 161 96 C159.83198443 99.50404672 159.23728458 99.74428531 156.16015625 101.53125 C155.35328369 102.0065918 154.54641113 102.48193359 153.71508789 102.97167969 C152.83973389 103.47602539 151.96437988 103.98037109 151.0625 104.5 C149.22873401 105.57738894 147.39540963 106.65552983 145.5625 107.734375 C144.63179687 108.27900391 143.70109375 108.82363281 142.7421875 109.38476562 C138.65349524 111.7931335 134.60648517 114.26752763 130.5625 116.75 C129.82273926 117.20262207 129.08297852 117.65524414 128.32080078 118.12158203 C124.97664307 120.16867522 121.63685339 122.22250492 118.3046875 124.2890625 C113.02220605 127.56150461 107.73264531 130.75972123 102.28125 133.7421875 C94.705566 137.91919135 87.32119966 142.39572296 80 147 C60.72611065 159.10557252 60.72611065 159.10557252 56 160 C56 160.66 56 161.32 56 162 C55.40316406 162.31710937 54.80632812 162.63421875 54.19140625 162.9609375 C43.24405158 168.84941059 32.56566991 175.19304467 21.96875 181.6875 C20.9384668 182.31849609 19.90818359 182.94949219 18.84667969 183.59960938 C16.81378106 184.84717189 14.78310239 186.0983605 12.75488281 187.35351562 C11.35254395 188.21493164 11.35254395 188.21493164 9.921875 189.09375 C9.09268555 189.60615234 8.26349609 190.11855469 7.40917969 190.64648438 C5 192 5 192 0 194 C0 129.98 0 65.96 0 0 Z " fill="#213A90" transform="translate(260,264)"/>
<path d="M0 0 C0.99 0 1.98 0 3 0 C3 63.36 3 126.72 3 192 C-1.33805905 190.91548524 -4.59823519 189.03250063 -8.375 186.75 C-9.90224305 185.83837294 -11.42959217 184.92692358 -12.95703125 184.015625 C-13.77123535 183.52771484 -14.58543945 183.03980469 -15.42431641 182.53710938 C-18.0923085 180.94491239 -20.76929315 179.36889575 -23.44921875 177.796875 C-32.45444519 172.5111131 -41.41092977 167.17244521 -50.23901367 161.59545898 C-55.59351383 158.22370215 -61.03296 155.01170314 -66.49853516 151.82397461 C-71.7710351 148.74222909 -76.98664239 145.57595273 -82.1875 142.375 C-88.58851423 138.43876781 -95.04268343 134.63005792 -101.59375 130.94921875 C-109.97239048 126.15456095 -118.18955399 121.07747185 -126.4375 116.0625 C-127.39720703 115.48048828 -128.35691406 114.89847656 -129.34570312 114.29882812 C-135.10932012 110.79408324 -140.82335251 107.22378036 -146.49365234 103.56982422 C-150.24261166 101.22170339 -154.10182352 99.08865258 -158 97 C-158 96.34 -158 95.68 -158 95 C-155.65097245 93.45191314 -153.31208254 92.02153045 -150.875 90.625 C-149.53821962 89.84780211 -148.2022717 89.06917052 -146.8671875 88.2890625 C-146.21459961 87.91040039 -145.56201172 87.53173828 -144.88964844 87.14160156 C-143.10331787 86.06241787 -141.40291028 84.90952963 -139.6953125 83.7109375 C-137 82 -137 82 -134 82 C-134 81.34 -134 80.68 -134 80 C-133.25169922 79.5978125 -133.25169922 79.5978125 -132.48828125 79.1875 C-127.73569653 76.5936297 -123.10105927 73.85471127 -118.5 71 C-114.2606291 68.37237149 -110.00127465 65.85409664 -105.625 63.46484375 C-91.74459913 55.71908434 -78.15291686 47.39939596 -64.828125 38.73828125 C-61.7303967 36.83429079 -58.57067892 35.07767427 -55.38671875 33.32299805 C-51.52148826 31.18043626 -47.6982472 28.96637519 -43.875 26.75 C-43.0487915 26.27111328 -42.22258301 25.79222656 -41.37133789 25.29882812 C-33.86875242 20.94010743 -26.41709868 16.50240366 -19 12 C-18.21544434 11.52433594 -17.43088867 11.04867187 -16.62255859 10.55859375 C-14.12201135 9.04128787 -11.62315629 7.52123882 -9.125 6 C-7.93668579 5.27780273 -7.93668579 5.27780273 -6.72436523 4.54101562 C-5.99290283 4.09435547 -5.26144043 3.64769531 -4.5078125 3.1875 C-3.85441895 2.78917969 -3.20102539 2.39085937 -2.52783203 1.98046875 C-1.01557557 1.08664336 -1.01557557 1.08664336 0 0 Z " fill="#243D91" transform="translate(238,43)"/>
<path d="M0 0 C5.60386473 1.12077295 5.60386473 1.12077295 8.5 3.0625 C9.17417969 3.50207031 9.84835937 3.94164062 10.54296875 4.39453125 C11.75919922 5.18923828 11.75919922 5.18923828 13 6 C15.26652617 7.42429041 17.53649844 8.84109181 19.8125 10.25 C21.46185547 11.27867188 21.46185547 11.27867188 23.14453125 12.328125 C25.93163791 14.0919033 25.93163791 14.0919033 29 15 C29 15.66 29 16.32 29 17 C29.52464844 17.09023438 30.04929687 17.18046875 30.58984375 17.2734375 C33.85079436 18.25647934 36.64053406 19.91584297 39.5625 21.625 C40.49122925 22.16133057 40.49122925 22.16133057 41.4387207 22.70849609 C46.16946273 25.46134842 50.77437842 28.38857208 55.37109375 31.359375 C58.8264114 33.51573966 62.39542647 35.41719275 65.984375 37.33984375 C74.95394359 42.27775392 83.67319591 47.69733594 92.2421875 53.296875 C95.2713103 55.1675514 98.3658824 56.88071265 101.48339844 58.59863281 C106.09076815 61.16424226 110.63551737 63.83774482 115.1875 66.5 C116.22543701 67.10658447 117.26337402 67.71316895 118.33276367 68.33813477 C121.55626125 70.22357675 124.77839748 72.11132202 128 74 C129.01610352 74.59538574 130.03220703 75.19077148 131.07910156 75.80419922 C157.61405308 91.36738577 157.61405308 91.36738577 161 94 C161 94.66 161 95.32 161 96 C160.01 96 159.02 96 158 96 C158 96.66 158 97.32 158 98 C157.46270264 98.29422852 156.92540527 98.58845703 156.37182617 98.89160156 C150.61482631 102.0643702 144.94587222 105.36314233 139.3125 108.75 C138.44326904 109.27150635 137.57403809 109.7930127 136.6784668 110.33032227 C131.50107041 113.45070273 126.37867693 116.63989223 121.3125 119.9375 C117.06369563 122.70070844 112.80091735 125.29056776 108.33984375 127.69140625 C105.33559393 129.37157936 102.42435623 131.18453261 99.5 133 C85.07184765 141.92689192 85.07184765 141.92689192 80 143 C80 143.66 80 144.32 80 145 C79.43796875 145.29390625 78.8759375 145.5878125 78.296875 145.890625 C68.31165986 151.22015701 58.68423258 157.14804005 49 163 C45.54324436 165.0859622 42.08497196 167.16937701 38.625 169.25 C37.79033203 169.75192871 36.95566406 170.25385742 36.09570312 170.77099609 C30.20129872 174.3050719 24.25379102 177.73036237 18.26953125 181.109375 C13.61975891 183.79813224 9.08250442 186.6549972 4.546875 189.53125 C2 191 2 191 0 191 C0 127.97 0 64.94 0 0 Z " fill="#233C91" transform="translate(260,44)"/>
<path d="M0 0 C4.46323711 1.4877457 7.37472916 2.63471529 11.23046875 5.01171875 C12.19919922 5.60533203 13.16792969 6.19894531 14.16601562 6.81054688 C15.66165039 7.73963867 15.66165039 7.73963867 17.1875 8.6875 C18.16525391 9.28755859 19.14300781 9.88761719 20.15039062 10.50585938 C25.02369466 13.50456794 29.86321775 16.54936277 34.67578125 19.64453125 C38.62642619 22.16794659 42.62802704 24.51550924 46.74365234 26.75732422 C50.98923003 29.09556166 55.14401744 31.59027496 59.3125 34.0625 C60.26382813 34.62541748 61.21515625 35.18833496 62.1953125 35.76831055 C69.47523487 40.0814235 76.72794815 44.43892043 83.97680664 48.80395508 C90.92445549 52.97732278 97.93739595 57.02436196 105 61 C105 61.66 105 62.32 105 63 C105.58322021 63.12221924 106.16644043 63.24443848 106.76733398 63.37036133 C109.04390269 64.01238109 110.70410084 64.85408041 112.72265625 66.07421875 C113.42140869 66.49203613 114.12016113 66.90985352 114.84008789 67.34033203 C115.94018188 68.00718018 115.94018188 68.00718018 117.0625 68.6875 C118.58251798 69.59641702 120.10335324 70.50396867 121.625 71.41015625 C122.3675 71.85246582 123.11 72.29477539 123.875 72.75048828 C128.18537084 75.2850101 132.5845751 77.65400751 137 80 C137 80.66 137 81.32 137 82 C137.61875 82.144375 138.2375 82.28875 138.875 82.4375 C141 83 141 83 143 84 C142.86645508 85.7590332 142.86645508 85.7590332 142 88 C139.47143555 89.90698242 139.47143555 89.90698242 136.13671875 91.85546875 C135.54832718 92.20257401 134.95993561 92.54967926 134.35371399 92.90730286 C133.10883321 93.63840827 131.86036264 94.36343052 130.60864258 95.08276367 C128.69766299 96.18165586 126.79845962 97.29890642 124.90039062 98.41992188 C114.79087167 104.33088727 114.79087167 104.33088727 111 105 C111 105.66 111 106.32 111 107 C104.375 111 104.375 111 101 111 C101 111.66 101 112.32 101 113 C100.35675781 113.3403125 99.71351563 113.680625 99.05078125 114.03125 C90.38921583 118.67711105 81.85501768 123.59733804 73.80078125 129.2421875 C71 131 71 131 68 131 C68 131.66 68 132.32 68 133 C67.28650391 133.38478516 67.28650391 133.38478516 66.55859375 133.77734375 C59.57512469 137.59703125 52.77069034 141.70561942 45.95849609 145.81933594 C44.0853155 146.94856822 42.20938822 148.07303992 40.33203125 149.1953125 C33.38833898 153.34680757 26.46641055 157.53264365 19.5625 161.75 C18.82926514 162.19778809 18.09603027 162.64557617 17.34057617 163.10693359 C16.6313501 163.54086426 15.92212402 163.97479492 15.19140625 164.421875 C14.49934082 164.84404297 13.80727539 165.26621094 13.09423828 165.70117188 C11.64971338 166.59705349 10.21630411 167.51102311 8.79248047 168.43945312 C8.08623535 168.89771484 7.37999023 169.35597656 6.65234375 169.828125 C6.02191162 170.24481445 5.39147949 170.66150391 4.74194336 171.09082031 C3 172 3 172 0 172 C0 115.24 0 58.48 0 0 Z " fill="#048A86" transform="translate(80,164)"/>
<path d="M0 0 C0.66 0.33 1.32 0.66 2 1 C2.15480082 22.34228167 2.30279846 43.68460122 2.4429636 65.02698421 C2.50821656 74.93931957 2.57559481 84.85163151 2.64819336 94.76391602 C2.7115541 103.41567908 2.77070623 112.06745959 2.82505554 120.71928412 C2.85390349 125.28922684 2.88468786 129.85913583 2.92053413 134.42902946 C3.07256812 153.98430894 3.09203395 173.46543726 2 193 C1.34 193.33 0.68 193.66 0 194 C-0.66 193.34 -1.32 192.68 -2 192 C-1.34 192 -0.68 192 0 192 C-0.33 130.29 -0.66 68.58 -1 5 C-2.65 5.33 -4.3 5.66 -6 6 C-6 6.66 -6 7.32 -6 8 C-7.32 8 -8.64 8 -10 8 C-10 7.34 -10 6.68 -10 6 C-7.8828125 4.45703125 -7.8828125 4.45703125 -5.125 2.8125 C-4.22007812 2.26207031 -3.31515625 1.71164062 -2.3828125 1.14453125 C-1.20332031 0.57798828 -1.20332031 0.57798828 0 0 Z " fill="#A9B0CD" transform="translate(239,264)"/>
<path d="M0 0 C6 2 6 2 7 4 C6.35530195 4.37266117 5.7106039 4.74532234 5.04636955 5.12927628 C2.75885641 6.86139916 2.75885641 6.86139916 2.39517403 9.71151352 C2.34993536 10.77413532 2.30469669 11.83675713 2.25808716 12.93157959 C2.20281986 14.09747368 2.14755257 15.26336777 2.0906105 16.46459198 C2.06070904 17.63127663 2.03080757 18.79796127 2 20 C1.97377438 21.00093941 1.94754875 22.00187881 1.92052841 23.03314972 C1.87132814 26.05441349 1.86470193 29.07308324 1.87060547 32.09472656 C1.86885315 33.22689606 1.86710083 34.35906555 1.86529541 35.52554321 C1.86093207 39.23058657 1.86379774 42.93558124 1.8671875 46.640625 C1.86651232 49.25258391 1.86554051 51.86454276 1.86428833 54.47650146 C1.86247651 59.9433239 1.86484363 65.41013276 1.86962891 70.87695312 C1.8750368 77.12571575 1.8733303 83.37444554 1.8678025 89.62320733 C1.86264371 95.70628545 1.86328467 101.78934948 1.86618423 107.87242889 C1.86684206 110.42514806 1.8660661 112.97786808 1.86370468 115.53058624 C1.85441272 128.40913915 1.96016044 141.26913059 2.44580078 154.13964844 C2.48452238 155.20669132 2.52324398 156.27373421 2.56313896 157.37311172 C2.60442987 158.3484071 2.64572079 159.32370247 2.68826294 160.32855225 C2.72407534 161.18573727 2.75988773 162.04292229 2.79678535 162.92608261 C2.88102215 165.06025972 2.88102215 165.06025972 4 167 C4.99 166.01 4.99 166.01 6 165 C8.625 165.375 8.625 165.375 11 166 C8.62949916 168.62002725 6.12723983 170.35819909 3 172 C2.01 172 1.02 172 0 172 C0 115.24 0 58.48 0 0 Z " fill="#429595" transform="translate(80,164)"/>
<path d="M0 0 C1.485 0.99 1.485 0.99 3 2 C2.34 2 1.68 2 1 2 C1.33 63.71 1.66 125.42 2 189 C4.64 188.67 7.28 188.34 10 188 C7.63202009 190.61724095 5.10399646 192.32861729 2 194 C1.34 194 0.68 194 0 194 C0 129.98 0 65.96 0 0 Z " fill="#A0ACD7" transform="translate(260,264)"/>
<path d="M0 0 C0.99 0.33 1.98 0.66 3 1 C3 1.66 3 2.32 3 3 C2.34 3 1.68 3 1 3 C1.00699732 3.94552136 1.01399464 4.89104273 1.02120399 5.86521626 C1.1908333 28.8488794 1.34890107 51.83259975 1.49477577 74.81642628 C1.565588 85.93112977 1.64018661 97.04578398 1.72363281 108.16040039 C1.79633659 117.84544976 1.86200357 127.5305166 1.91914403 137.21567076 C1.94966026 142.34608822 1.9837519 147.47642678 2.02626419 152.60676003 C2.06613802 157.43208547 2.0966281 162.25737775 2.11981392 167.08281136 C2.13001257 168.85700072 2.14368681 170.63117391 2.16103554 172.40530777 C2.18415154 174.82155428 2.19493434 177.23754718 2.20254517 179.65388489 C2.2122618 180.36108085 2.22197843 181.06827681 2.2319895 181.79690295 C2.22917984 185.44160746 2.08429402 186.87355896 0 190 C0 127.3 0 64.6 0 0 Z " fill="#293A7C" transform="translate(261,266)"/>
<path d="M0 0 C0.66 0.33 1.32 0.66 2 1 C-1.53950339 4.91873589 -1.53950339 4.91873589 -4.125 5.375 C-5.053125 5.684375 -5.053125 5.684375 -6 6 C-7.59844485 9.59650092 -8 12.03397243 -8 16 C-7.01 16 -6.02 16 -5 16 C-4.34 17.65 -3.68 19.3 -3 21 C-6.65573061 19.62992438 -9.95467647 17.98982135 -13.3125 16 C-14.19550781 15.484375 -15.07851562 14.96875 -15.98828125 14.4375 C-16.65214844 13.963125 -17.31601563 13.48875 -18 13 C-18 12.34 -18 11.68 -18 11 C-15.5884268 9.41008212 -13.18776316 7.93724953 -10.6875 6.5 C-9.31611061 5.69842226 -7.94500651 4.89635617 -6.57421875 4.09375 C-5.96151123 3.73990234 -5.34880371 3.38605469 -4.7175293 3.02148438 C-3.11253989 2.06693204 -1.55376591 1.03584394 0 0 Z " fill="#435397" transform="translate(98,127)"/>
<path d="M0 0 C0.66 0.33 1.32 0.66 2 1 C1.01 2.485 1.01 2.485 0 4 C-0.99 4 -1.98 4 -3 4 C-3.33 5.32 -3.66 6.64 -4 8 C-5.9375 8.5625 -5.9375 8.5625 -8 9 C-8.33 8.67 -8.66 8.34 -9 8 C-9 9.32 -9 10.64 -9 12 C-7.35 11.67 -5.7 11.34 -4 11 C-4.33 12.65 -4.66 14.3 -5 16 C-4.34 16.45375 -3.68 16.9075 -3 17.375 C-2.34 17.91125 -1.68 18.4475 -1 19 C-1 19.66 -1 20.32 -1 21 C-4.63514696 19.6310888 -7.95588903 18.0167935 -11.3125 16.0625 C-12.19550781 15.55847656 -13.07851562 15.05445313 -13.98828125 14.53515625 C-14.65214844 14.02855469 -15.31601563 13.52195312 -16 13 C-16 12.01 -16 11.02 -16 10 C-13.54438909 8.31564594 -11.14891439 6.8288322 -8.5625 5.375 C-4.01709862 3.0283678 -4.01709862 3.0283678 0 0 Z " fill="#6A78AA" transform="translate(97,350)"/>
<path d="M0 0 C0.99 0 1.98 0 3 0 C3 0.66 3 1.32 3 2 C3.61875 2.144375 4.2375 2.28875 4.875 2.4375 C7 3 7 3 9 4 C8.90234375 5.73046875 8.90234375 5.73046875 8 8 C5.8636445 9.61897961 3.85836921 10.96935513 1.5625 12.3125 C0.96373047 12.68439453 0.36496094 13.05628906 -0.25195312 13.43945312 C-1.79294656 14.36611995 -3.39377275 15.19166457 -5 16 C-5.66 15.67 -6.32 15.34 -7 15 C-6.67 14.01 -6.34 13.02 -6 12 C-5.01 12 -4.02 12 -3 12 C-3 11.01 -3 10.02 -3 9 C-1.1875 7.9375 -1.1875 7.9375 1 7 C1.99 7.33 2.98 7.66 4 8 C3.01 6.576875 3.01 6.576875 2 5.125 C0 2 0 2 0 0 Z " fill="#56ACA6" transform="translate(214,244)"/>
<path d="M0 0 C0.99 0 1.98 0 3 0 C3.33 0.66 3.66 1.32 4 2 C4.556875 2.12375 5.11375 2.2475 5.6875 2.375 C8.96592505 3.26106082 11.3025009 4.97687567 14 7 C14 7.66 14 8.32 14 9 C15.65 9 17.3 9 19 9 C19.33 8.01 19.66 7.02 20 6 C20.66 6.33 21.32 6.66 22 7 C22.33 7.99 22.66 8.98 23 10 C23.66 10.33 24.32 10.66 25 11 C22 13 22 13 19.3359375 12.93359375 C14.90610646 11.69386352 11.46918335 9.54071223 7.625 7.0625 C6.88894531 6.60681641 6.15289062 6.15113281 5.39453125 5.68164062 C1.39934319 3.15036656 1.39934319 3.15036656 0 2 C0 1.34 0 0.68 0 0 Z " fill="#3F5197" transform="translate(151,403)"/>
<path d="M0 0 C0.33 0.66 0.66 1.32 1 2 C3.52733235 2.65555119 3.52733235 2.65555119 6 3 C6 3.66 6 4.32 6 5 C7.43725871 5.16873478 8.87481838 5.33490737 10.3125 5.5 C11.11300781 5.5928125 11.91351563 5.685625 12.73828125 5.78125 C15.11896555 6.04813463 15.11896555 6.04813463 18 6 C17.625 7.9375 17.625 7.9375 17 10 C15 11 15 11 12 11 C9.56420666 9.76777514 7.22780708 8.49865908 4.875 7.125 C4.22917969 6.76019531 3.58335937 6.39539063 2.91796875 6.01953125 C-1.87058174 3.25883652 -1.87058174 3.25883652 -3 1 C-2.01 0.67 -1.02 0.34 0 0 Z " fill="#54659A" transform="translate(182,197)"/>
<path d="M0 0 C2.02237052 0.95394836 4.0282696 1.94535351 6 3 C2.8386498 5.81008907 1.14625351 6.10365634 -3 6 C-5.25132517 6.91568906 -5.25132517 6.91568906 -7 8 C-7 5.36 -7 2.72 -7 0 C-4.23868631 -1.38065685 -2.96128936 -0.80762437 0 0 Z " fill="#263C8E" transform="translate(269,48)"/>
<path d="M0 0 C4.95725232 0.52131717 8.28207993 2.85203212 12.3125 5.5625 C13.28026367 6.19961914 13.28026367 6.19961914 14.26757812 6.84960938 C15.84973954 7.89266393 17.42552501 8.94537872 19 10 C18.34 10.66 17.68 11.32 17 12 C17 11.34 17 10.68 17 10 C14.03 9.505 14.03 9.505 11 9 C10.67 8.01 10.34 7.02 10 6 C8.63875 6.309375 8.63875 6.309375 7.25 6.625 C3.88972103 7.0127245 2.75924185 6.80411967 0 5 C0 3.35 0 1.7 0 0 Z " fill="#339692" transform="translate(153,208)"/>
<path d="M0 0 C1 3 1 3 1 5 C0.360625 5.12375 -0.27875 5.2475 -0.9375 5.375 C-1.618125 5.58125 -2.29875 5.7875 -3 6 C-3.33 6.66 -3.66 7.32 -4 8 C-6.97 7.505 -6.97 7.505 -10 7 C-10.33 8.32 -10.66 9.64 -11 11 C-12.32 10.67 -13.64 10.34 -15 10 C-13.74838228 6.24514684 -12.54425403 5.83105872 -9.1875 3.875 C-7.87845703 3.09769531 -7.87845703 3.09769531 -6.54296875 2.3046875 C-4.31362373 1.1609068 -2.44546695 0.46743191 0 0 Z " fill="#36488E" transform="translate(154,95)"/>
<path d="M0 0 C0.33 0 0.66 0 1 0 C1.02505615 0.74685059 1.0501123 1.49370117 1.07592773 2.26318359 C1.19168213 5.63397267 1.31450128 9.00446783 1.4375 12.375 C1.47681641 13.550625 1.51613281 14.72625 1.55664062 15.9375 C1.59853516 17.05898438 1.64042969 18.18046875 1.68359375 19.3359375 C1.72025146 20.37282715 1.75690918 21.4097168 1.79467773 22.47802734 C1.84164223 24.99425166 1.84164223 24.99425166 3 27 C3.66 26.34 4.32 25.68 5 25 C7.625 25.375 7.625 25.375 10 26 C7.61419704 28.88807727 5.70939253 29.61954948 2 30 C1.34 29.67 0.68 29.34 0 29 C0 19.43 0 9.86 0 0 Z " fill="#0F8682" transform="translate(81,304)"/>
<path d="M0 0 C4.10958767 1.45044271 7.43258745 3.51110752 11 6 C9 8 9 8 5.875 8.125 C4.92625 8.08375 3.9775 8.0425 3 8 C3 8.66 3 9.32 3 10 C2.01 9.67 1.02 9.34 0 9 C0.185625 7.88625 0.37125 6.7725 0.5625 5.625 C1.31680657 2.17431139 1.31680657 2.17431139 0 0 Z " fill="#5566A8" transform="translate(329,84)"/>
<path d="M0 0 C0.99 0.33 1.98 0.66 3 1 C2 4 2 4 1 5 C3.31 5.33 5.62 5.66 8 6 C7.01 6.495 7.01 6.495 6 7 C6.33 8.32 6.66 9.64 7 11 C2.69235185 9.43358249 -1.06171464 7.31663844 -5 5 C-5 4.01 -5 3.02 -5 2 C-3.68 2 -2.36 2 -1 2 C-0.67 1.34 -0.34 0.68 0 0 Z " fill="#4A5C9E" transform="translate(208,432)"/>
<path d="M0 0 C0.66 0.33 1.32 0.66 2 1 C1.5625 3.375 1.5625 3.375 0 6 C-2.94119871 7.07001562 -5.90584243 7.57343918 -9 8 C-9 8.66 -9 9.32 -9 10 C-10.98 10 -12.96 10 -15 10 C-10.47125612 6.07508864 -5.39401009 2.62540314 0 0 Z " fill="#5D6CA5" transform="translate(222,53)"/>
<path d="M0 0 C2.9719385 1.12451727 5.33440687 2.22293791 8 4 C6.83917375 7.48247874 6.09067524 7.88819244 3.0625 9.75 C2.35222656 10.19859375 1.64195312 10.6471875 0.91015625 11.109375 C0.27980469 11.40328125 -0.35054688 11.6971875 -1 12 C-1.66 11.67 -2.32 11.34 -3 11 C-2.01 10.67 -1.02 10.34 0 10 C0.185625 8.72125 0.37125 7.4425 0.5625 6.125 C0.66691406 5.40570313 0.77132813 4.68640625 0.87890625 3.9453125 C1.1684297 1.91859333 1.1684297 1.91859333 0 0 Z " fill="#7585B7" transform="translate(413,356)"/>
<path d="M0 0 C0.33 0.99 0.66 1.98 1 3 C-0.39176632 3.96423026 -1.7886223 4.92111602 -3.1875 5.875 C-3.96480469 6.40867187 -4.74210937 6.94234375 -5.54296875 7.4921875 C-7.9676609 8.98015439 -10.3333499 10.02428078 -13 11 C-13 10.01 -13 9.02 -13 8 C-11.68 8 -10.36 8 -9 8 C-9.33 6.68 -9.66 5.36 -10 4 C-6.535 3.505 -6.535 3.505 -3 3 C-3.33 2.34 -3.66 1.68 -4 1 C-2 0 -2 0 0 0 Z " fill="#6372AD" transform="translate(348,402)"/>
<path d="M0 0 C0.33 0.66 0.66 1.32 1 2 C1.99 2.33 2.98 2.66 4 3 C4.33 3.99 4.66 4.98 5 6 C3 6.8125 3 6.8125 0 7 C-2.87333525 5.62441066 -5.48731467 3.95777468 -8 2 C-8 1.67 -8 1.34 -8 1 C-5.36 0.67 -2.72 0.34 0 0 Z " fill="#5566A2" transform="translate(115,154)"/>
<path d="M0 0 C0.66 0.66 1.32 1.32 2 2 C1.67 2.33 1.34 2.66 1 3 C1.66 3.33 2.32 3.66 3 4 C3.33 2.68 3.66 1.36 4 0 C4.99 1.32 5.98 2.64 7 4 C1.58461538 8.06153846 1.58461538 8.06153846 -1.375 7.75 C-1.91125 7.5025 -2.4475 7.255 -3 7 C-3.1875 4.625 -3.1875 4.625 -3 2 C-2.01 1.34 -1.02 0.68 0 0 Z " fill="#314791" transform="translate(356,393)"/>
<path d="M0 0 C-0.33 1.32 -0.66 2.64 -1 4 C-0.34 4.45375 0.32 4.9075 1 5.375 C1.66 5.91125 2.32 6.4475 3 7 C3 7.66 3 8.32 3 9 C-0.59147806 7.66602243 -3.8843916 6.25016162 -7 4 C-7.8125 1.8125 -7.8125 1.8125 -8 0 C-2.25 -1.125 -2.25 -1.125 0 0 Z " fill="#5C6CA5" transform="translate(93,362)"/>
<path d="M0 0 C0 1.32 0 2.64 0 4 C-1.97194115 5.97194115 -3.50904533 6.832365 -6 8 C-6.99 8.495 -6.99 8.495 -8 9 C-8.33 8.01 -8.66 7.02 -9 6 C-9.66 5.67 -10.32 5.34 -11 5 C-9.73461631 4.15841464 -8.46246221 3.32700252 -7.1875 2.5 C-6.47980469 2.0359375 -5.77210938 1.571875 -5.04296875 1.09375 C-3 0 -3 0 0 0 Z " fill="#5E6DAB" transform="translate(235,47)"/>
<path d="M0 0 C4.77609498 1.64178265 8.79382904 4.26546702 13 7 C11.68 7.99 10.36 8.98 9 10 C4.27236232 7.26847601 2.07357484 5.06873851 0 0 Z " fill="#379E9B" transform="translate(121,188)"/>
<path d="M0 0 C0.66 0.33 1.32 0.66 2 1 C1.03628506 3.40928735 0.34789837 4.76007009 -1.8125 6.25 C-4.32321365 7.11081611 -6.36348649 7.14647297 -9 7 C-9.33 7.99 -9.66 8.98 -10 10 C-10.99 9.34 -11.98 8.68 -13 8 C-10.880788 6.63594382 -8.75551882 5.28368225 -6.625 3.9375 C-6.02171875 3.54755859 -5.4184375 3.15761719 -4.796875 2.75585938 C-3.23507443 1.77539568 -1.62007786 0.88083925 0 0 Z " fill="#7E8AB8" transform="translate(127,332)"/>
<path d="M0 0 C0.99 0 1.98 0 3 0 C3 0.66 3 1.32 3 2 C3.928125 2.2165625 3.928125 2.2165625 4.875 2.4375 C7 3 7 3 9 4 C8.67 5.32 8.34 6.64 8 8 C6.68 8 5.36 8 4 8 C0 2.88888889 0 2.88888889 0 0 Z " fill="#59A5A4" transform="translate(214,244)"/>
<path d="M0 0 C1.75 1.25 1.75 1.25 3 3 C3.1875 5.6875 3.1875 5.6875 3 8 C1.62437146 6.71034824 0.29233607 5.37310707 -1 4 C-1 3.34 -1 2.68 -1 2 C-1.66 2 -2.32 2 -3 2 C-3.33 2.99 -3.66 3.98 -4 5 C-4.12375 4.360625 -4.2475 3.72125 -4.375 3.0625 C-4.684375 2.0415625 -4.684375 2.0415625 -5 1 C-5.66 0.67 -6.32 0.34 -7 0 C-3.83170302 -1.05609899 -3.01480825 -1.13055309 0 0 Z " fill="#43549C" transform="translate(366,327)"/>
<path d="M0 0 C0.99 0 1.98 0 3 0 C3.33 0.66 3.66 1.32 4 2 C4.556875 2.12375 5.11375 2.2475 5.6875 2.375 C8.98092442 3.26511471 11.29511301 4.95630761 14 7 C14.33 7.99 14.66 8.98 15 10 C9.33822218 8.5482621 4.50540116 5.68441695 0 2 C0 1.34 0 0.68 0 0 Z " fill="#7783B1" transform="translate(151,403)"/>
<path d="M0 0 C0.33 0.66 0.66 1.32 1 2 C1.66 2.33 2.32 2.66 3 3 C3.66 3.66 4.32 4.32 5 5 C4.625 7.125 4.625 7.125 4 9 C0.62496331 7.8141763 -1.64722731 6.72426311 -4 4 C-3.34 4 -2.68 4 -2 4 C-2 3.34 -2 2.68 -2 2 C-1.34 2 -0.68 2 0 2 C0 1.34 0 0.68 0 0 Z " fill="#5264A4" transform="translate(233,224)"/>
<path d="M0 0 C2.475 0.495 2.475 0.495 5 1 C5.33 1.66 5.66 2.32 6 3 C5.03320312 3.53560547 5.03320312 3.53560547 4.046875 4.08203125 C1.15789794 6.78906891 1.40394183 8.80046879 1.25 12.6875 C1.19328125 13.86699219 1.1365625 15.04648438 1.078125 16.26171875 C1.03945312 17.61716797 1.03945312 17.61716797 1 19 C0.67 19 0.34 19 0 19 C0 12.73 0 6.46 0 0 Z " fill="#2F9690" transform="translate(81,165)"/>
<path d="M0 0 C2.97 0.495 2.97 0.495 6 1 C3.63055987 3.61885488 1.16266898 5.41866551 -2 7 C-2.99 6.67 -3.98 6.34 -5 6 C-5.33 5.01 -5.66 4.02 -6 3 C-2.25 1.875 -2.25 1.875 0 3 C0 2.01 0 1.02 0 0 Z " fill="#6472AC" transform="translate(316,197)"/>
<path d="M0 0 C0.66 0.33 1.32 0.66 2 1 C-1.625 6.75 -1.625 6.75 -5 9 C-5 8.34 -5 7.68 -5 7 C-6.65 7.33 -8.3 7.66 -10 8 C-10 7.34 -10 6.68 -10 6 C-9.36191406 5.65066406 -8.72382812 5.30132812 -8.06640625 4.94140625 C-7.24011719 4.48636719 -6.41382812 4.03132813 -5.5625 3.5625 C-4.73878906 3.11003906 -3.91507812 2.65757813 -3.06640625 2.19140625 C-1.07691202 1.16337603 -1.07691202 1.16337603 0 0 Z " fill="#727FB3" transform="translate(114,117)"/>
<path d="M0 0 C0.33 0.66 0.66 1.32 1 2 C3.02463255 2.65213292 3.02463255 2.65213292 5 3 C-0.625 7 -0.625 7 -4 7 C-4 7.66 -4 8.32 -4 9 C-4.99 8.67 -5.98 8.34 -7 8 C-7.33 7.34 -7.66 6.68 -8 6 C-6.02 5.67 -4.04 5.34 -2 5 C-2 4.34 -2 3.68 -2 3 C-1.34 3 -0.68 3 0 3 C0 2.01 0 1.02 0 0 Z " fill="#5FACA9" transform="translate(195,262)"/>
<path d="M0 0 C0.66 0.33 1.32 0.66 2 1 C-0.65636654 3.94097724 -2.23464224 5.05866056 -6 6 C-8.22977996 7.97901574 -8.22977996 7.97901574 -10 10 C-10.99 9.34 -11.98 8.68 -13 8 C-10.880788 6.63594382 -8.75551882 5.28368225 -6.625 3.9375 C-6.02171875 3.54755859 -5.4184375 3.15761719 -4.796875 2.75585938 C-3.23507443 1.77539568 -1.62007786 0.88083925 0 0 Z " fill="#8C96C0" transform="translate(98,127)"/>
<path d="M0 0 C1.98 0 3.96 0 6 0 C2.91367389 3.2626876 0.06516496 6.02235218 -4 8 C-4.66 7.67 -5.32 7.34 -6 7 C-5.34 5.68 -4.68 4.36 -4 3 C-2.68 3 -1.36 3 0 3 C0 2.01 0 1.02 0 0 Z " fill="#6471A8" transform="translate(276,444)"/>
<path d="M0 0 C3.99500618 1.3697164 6.80009492 3.25722422 10 6 C9.01 6.33 8.02 6.66 7 7 C6.34 6.67 5.68 6.34 5 6 C3.62657169 5.9310528 2.24997898 5.91532292 0.875 5.9375 C-1.043125 5.9684375 -1.043125 5.9684375 -3 6 C-2.67 5.01 -2.34 4.02 -2 3 C-1.01 3 -0.02 3 1 3 C0.67 2.01 0.34 1.02 0 0 Z " fill="#5D6DAB" transform="translate(341,313)"/>
<path d="M0 0 C2.1875 0.3125 2.1875 0.3125 4 1 C4 2.65 4 4.3 4 6 C1.75 6.75 1.75 6.75 -1 7 C-3.3125 5.0625 -3.3125 5.0625 -5 3 C-4.34 3 -3.68 3 -3 3 C-2.54625 2.484375 -2.0925 1.96875 -1.625 1.4375 C-1.08875 0.963125 -0.5525 0.48875 0 0 Z " fill="#4A5EA7" transform="translate(156,178)"/>
<path d="M0 0 C0.8971875 0.309375 0.8971875 0.309375 1.8125 0.625 C0.8125 3.625 0.8125 3.625 -1.4375 4.8125 C-4.18541147 5.62438294 -6.34197889 5.78760121 -9.1875 5.625 C-3.21691176 -0.55147059 -3.21691176 -0.55147059 0 0 Z " fill="#58689E" transform="translate(228.1875,272.375)"/>
<path d="M0 0 C0 1.98 0 3.96 0 6 C-0.66 5.01 -1.32 4.02 -2 3 C-3.65 3.33 -5.3 3.66 -7 4 C-7 4.66 -7 5.32 -7 6 C-8.32 6 -9.64 6 -11 6 C-11 5.34 -11 4.68 -11 4 C-4.5 0 -4.5 0 0 0 Z " fill="#646FA2" transform="translate(240,266)"/>
<path d="M0 0 C4.77609498 1.64178265 8.79382904 4.26546702 13 7 C9.92443042 7.97918775 9.31407577 8.1498998 6.25 6.6875 C5.5075 6.130625 4.765 5.57375 4 5 C4 4.34 4 3.68 4 3 C3.01 3 2.02 3 1 3 C0.67 2.01 0.34 1.02 0 0 Z " fill="#7EB9B8" transform="translate(92,171)"/>
<path d="M0 0 C0.66 0.33 1.32 0.66 2 1 C2 1.99 2 2.98 2 4 C-2.36200187 6.44697666 -6.02693484 7.50269348 -11 8 C-9.66566859 5.33133717 -8.11620897 4.82425634 -5.5 3.4375 C-2.55848713 1.98363365 -2.55848713 1.98363365 0 0 Z " fill="#8490BB" transform="translate(136,104)"/>
<path d="M0 0 C0.66 0 1.32 0 2 0 C2 0.66 2 1.32 2 2 C2.99 2.33 3.98 2.66 5 3 C3.71186658 3.83878455 2.41936744 4.67086783 1.125 5.5 C0.40570313 5.9640625 -0.31359375 6.428125 -1.0546875 6.90625 C-3 8 -3 8 -5 8 C-5 7.01 -5 6.02 -5 5 C-3.70264493 3.95374591 -2.36733028 2.95298777 -1 2 C-0.67 1.34 -0.34 0.68 0 0 Z " fill="#6471AA" transform="translate(267,226)"/>
<path d="M0 0 C0.99 0.33 1.98 0.66 3 1 C2.67 1.66 2.34 2.32 2 3 C5.3 2.34 8.6 1.68 12 1 C9.43833199 3.56166801 8.44696024 4.44554406 5.3125 5.6875 C4.219375 6.120625 3.12625 6.55375 2 7 C2 6.01 2 5.02 2 4 C1.34 4 0.68 4 0 4 C0 2.68 0 1.36 0 0 Z " fill="#6A7CB0" transform="translate(275,218)"/>
<path d="M0 0 C1.65 0.33 3.3 0.66 5 1 C1.80009492 3.74277578 -1.00499382 5.6302836 -5 7 C-4.67 5.35 -4.34 3.7 -4 2 C-2.68 2 -1.36 2 0 2 C0 1.34 0 0.68 0 0 Z " fill="#616EA8" transform="translate(387,378)"/>
<path d="M0 0 C4.43090471 1.20842856 6.98112756 2.51668565 10 6 C8.35 6.33 6.7 6.66 5 7 C5 6.01 5 5.02 5 4 C4.34 4 3.68 4 3 4 C2.67 4.66 2.34 5.32 2 6 C1.34 6 0.68 6 0 6 C0 4.02 0 2.04 0 0 Z " fill="#6877AC" transform="translate(362,104)"/>
<path d="M0 0 C2.625 0.75 2.625 0.75 5 2 C5.33 2.66 5.66 3.32 6 4 C3.69 4.66 1.38 5.32 -1 6 C-1.66 4.68 -2.32 3.36 -3 2 C-2.01 1.34 -1.02 0.68 0 0 Z " fill="#42559E" transform="translate(170,306)"/>
<path d="M0 0 C4.77609498 1.64178265 8.79382904 4.26546702 13 7 C12.34 7.66 11.68 8.32 11 9 C11 8.34 11 7.68 11 7 C10.113125 6.95875 9.22625 6.9175 8.3125 6.875 C3.78370473 5.67871446 2.70356508 3.73728113 0 0 Z " fill="#8AC6C4" transform="translate(159,211)"/>
<path d="M0 0 C3.77545388 1.09068668 6.47043472 1.9083091 9 5 C7.35 5 5.7 5 4 5 C4 5.66 4 6.32 4 7 C3.34 7 2.68 7 2 7 C1.34 4.69 0.68 2.38 0 0 Z " fill="#6A77AF" transform="translate(279,276)"/>
<path d="M0 0 C-0.3125 1.875 -0.3125 1.875 -1 4 C-1.99 4.66 -2.98 5.32 -4 6 C-4.33 5.34 -4.66 4.68 -5 4 C-6.32 4.99 -7.64 5.98 -9 7 C-9.66 6.34 -10.32 5.68 -11 5 C-9.54462432 4.16151196 -8.08559627 3.32936066 -6.625 2.5 C-5.81289062 2.0359375 -5.00078125 1.571875 -4.1640625 1.09375 C-2 0 -2 0 0 0 Z " fill="#808DBD" transform="translate(201,67)"/>
<path d="M0 0 C0.66 0 1.32 0 2 0 C1.8125 1.875 1.8125 1.875 1 4 C-1.4375 5.3125 -1.4375 5.3125 -4 6 C-4.66 5.67 -5.32 5.34 -6 5 C-6 3.68 -6 2.36 -6 1 C-5.38125 1.20625 -4.7625 1.4125 -4.125 1.625 C-3.073125 1.810625 -3.073125 1.810625 -2 2 C-1.34 1.34 -0.68 0.68 0 0 Z " fill="#415197" transform="translate(403,146)"/>
<path d="M0 0 C0.66 0.33 1.32 0.66 2 1 C1.67 1.66 1.34 2.32 1 3 C0.34 3 -0.32 3 -1 3 C-1.33 4.32 -1.66 5.64 -2 7 C-3.32 6.67 -4.64 6.34 -6 6 C-5 3 -5 3 -2.5625 1.25 C-1.716875 0.8375 -0.87125 0.425 0 0 Z " fill="#5869A1" transform="translate(145,99)"/>
<path d="M0 0 C4.875 1.75 4.875 1.75 6 4 C5.01 4.99 4.02 5.98 3 7 C1.68 6.01 0.36 5.02 -1 4 C-0.34 4 0.32 4 1 4 C0.67 2.68 0.34 1.36 0 0 Z " fill="#5163A6" transform="translate(273,272)"/>
<path d="M0 0 C2.78211944 0.37596209 4.5879284 0.67318459 6.8125 2.4375 C8 4 8 4 8 6 C5.0280615 4.87548273 2.66559313 3.77706209 0 2 C0 1.34 0 0.68 0 0 Z " fill="#6370A8" transform="translate(164,188)"/>
<path d="M0 0 C2.5625 0.5625 2.5625 0.5625 5 2 C6.3125 4.625 6.3125 4.625 7 7 C3.40608886 5.66511872 0.24509304 4.03977277 -3 2 C-2.01 1.34 -1.02 0.68 0 0 Z " fill="#7784AF" transform="translate(88,141)"/>
<path d="M0 0 C0.66 0.33 1.32 0.66 2 1 C1.01 1.66 0.02 2.32 -1 3 C-1 3.99 -1 4.98 -1 6 C-3.64 6.33 -6.28 6.66 -9 7 C-9 6.34 -9 5.68 -9 5 C-7.54735962 4.1361871 -6.0876837 3.28419546 -4.625 2.4375 C-3.40683594 1.72400391 -3.40683594 1.72400391 -2.1640625 0.99609375 C-1.44992188 0.66738281 -0.73578125 0.33867187 0 0 Z " fill="#9DA6CD" transform="translate(216,278)"/>
<path d="M0 0 C1.67542976 0.28604898 3.34385343 0.61781233 5 1 C0.375 5 0.375 5 -3 5 C-3 3.68 -3 2.36 -3 1 C-2.34 1 -1.68 1 -1 1 C-0.67 0.67 -0.34 0.34 0 0 Z " fill="#6172AB" transform="translate(294,211)"/>
<path d="M0 0 C4.43090471 1.20842856 6.98112756 2.51668565 10 6 C7 7 7 7 4 6 C4.33 5.01 4.66 4.02 5 3 C3.68 3 2.36 3 1 3 C0.67 2.01 0.34 1.02 0 0 Z " fill="#8F9CC5" transform="translate(406,130)"/>
<path d="M0 0 C3.99500618 1.3697164 6.80009492 3.25722422 10 6 C9.01 6.33 8.02 6.66 7 7 C6.67 6.34 6.34 5.68 6 5 C2.97065509 4.34227572 2.97065509 4.34227572 0 4 C0 2.68 0 1.36 0 0 Z " fill="#8392BB" transform="translate(300,67)"/>
<path d="M0 0 C5.75 1.75 5.75 1.75 8 4 C5.625 5.0625 5.625 5.0625 3 6 C2.34 5.67 1.68 5.34 1 5 C0.375 2.4375 0.375 2.4375 0 0 Z " fill="#6A79AB" transform="translate(267,48)"/>
<path d="M0 0 C0.1875 2.875 0.1875 2.875 0 6 C-0.99 6.66 -1.98 7.32 -3 8 C-3.33 6.02 -3.66 4.04 -4 2 C-1 0 -1 0 0 0 Z " fill="#223683" transform="translate(239,45)"/>
<path d="M0 0 C-0.99 0.495 -0.99 0.495 -2 1 C-1.67 2.32 -1.34 3.64 -1 5 C-3.4375 4.1875 -3.4375 4.1875 -6 3 C-6.33 2.01 -6.66 1.02 -7 0 C-4.3333581 -1.33332095 -2.83319697 -0.67102033 0 0 Z " fill="#6574AB" transform="translate(216,438)"/>
<path d="M0 0 C3.00250341 -0.25020862 4.61322124 -0.22562095 7.25 1.3125 C9 3 9 3 10 6 C6.40992874 4.66654496 3.20429093 3.1056769 0 1 C0 0.67 0 0.34 0 0 Z " fill="#737CB3" transform="translate(174,418)"/>
<path d="M0 0 C1.65 0.33 3.3 0.66 5 1 C2.64722731 3.72426311 0.37503669 4.8141763 -3 6 C-3.33 5.01 -3.66 4.02 -4 3 C-2.68 2.67 -1.36 2.34 0 2 C0 1.34 0 0.68 0 0 Z " fill="#808BB8" transform="translate(384,157)"/>
<path d="M0 0 C-2.93828597 2.50298434 -5.17902761 3.46930939 -9 4 C-9 3.01 -9 2.02 -9 1 C-6.04335481 -0.4783226 -3.25770263 -0.06032783 0 0 Z " fill="#5562A1" transform="translate(396,154)"/>
<path d="M0 0 C3.77545388 1.09068668 6.47043472 1.9083091 9 5 C8.01 5.495 8.01 5.495 7 6 C7 5.34 7 4.68 7 4 C4.11785113 4.88214887 4.11785113 4.88214887 2 6 C1.34 4.02 0.68 2.04 0 0 Z " fill="#828EBD" transform="translate(372,110)"/>
<path d="M0 0 C0.33 0 0.66 0 1 0 C1 3.63 1 7.26 1 11 C1.99 11.33 2.98 11.66 4 12 C3.67 12.66 3.34 13.32 3 14 C2.01 14 1.02 14 0 14 C0 9.38 0 4.76 0 0 Z " fill="#509D9B" transform="translate(80,322)"/>
<path d="M0 0 C0.33 0.66 0.66 1.32 1 2 C-4.2734375 5.22265625 -4.2734375 5.22265625 -6 6 C-6.66 5.67 -7.32 5.34 -8 5 C-7.67 3.68 -7.34 2.36 -7 1 C-3.535 0.505 -3.535 0.505 0 0 Z " fill="#60AEA9" transform="translate(180,275)"/>
<path d="M0 0 C0 0.99 0 1.98 0 3 C1.32 3.33 2.64 3.66 4 4 C4 4.66 4 5.32 4 6 C0.22454612 4.90931332 -2.47043472 4.0916909 -5 1 C-2 0 -2 0 0 0 Z " fill="#8D97C4" transform="translate(215,216)"/>
<path d="M0 0 C3.93673644 1.31224548 6.22719294 2.91910327 9 6 C8.01 6.495 8.01 6.495 7 7 C7 6.34 7 5.68 7 5 C6.21625 4.9175 5.4325 4.835 4.625 4.75 C2 4 2 4 0.6875 1.9375 C0.460625 1.298125 0.23375 0.65875 0 0 Z " fill="#828DBA" transform="translate(403,350)"/>
<path d="M0 0 C0 1.32 0 2.64 0 4 C-2.31 4 -4.62 4 -7 4 C-3.375 0 -3.375 0 0 0 Z " fill="#6974AB" transform="translate(164,311)"/>
<path d="M0 0 C1.32 0.66 2.64 1.32 4 2 C2.71475739 2.86380259 1.42157581 3.71580369 0.125 4.5625 C-0.59429687 5.03816406 -1.31359375 5.51382812 -2.0546875 6.00390625 C-2.69664062 6.33261719 -3.33859375 6.66132813 -4 7 C-4.66 6.67 -5.32 6.34 -6 6 C-5.34 5.01 -4.68 4.02 -4 3 C-2.68 3 -1.36 3 0 3 C0 2.01 0 1.02 0 0 Z " fill="#9ACCCA" transform="translate(137,299)"/>
<path d="M0 0 C2.64 0.33 5.28 0.66 8 1 C8 1.99 8 2.98 8 4 C7.01 4.495 7.01 4.495 6 5 C3.98079663 3.69593116 1.98075027 2.36176581 0 1 C0 0.67 0 0.34 0 0 Z " fill="#7A87B9" transform="translate(197,209)"/>
<path d="M0 0 C0.66 0.66 1.32 1.32 2 2 C1 5 1 5 -1 6 C-1.99 6 -2.98 6 -4 6 C-3.6875 4.125 -3.6875 4.125 -3 2 C-2.01 1.34 -1.02 0.68 0 0 Z " fill="#4257A2" transform="translate(198,202)"/>
<path d="M0 0 C3.93673644 1.31224548 6.22719294 2.91910327 9 6 C6.1875 5.8125 6.1875 5.8125 3 5 C1.125 2.4375 1.125 2.4375 0 0 Z " fill="#7FC0BE" transform="translate(121,188)"/>
<path d="M0 0 C0.33 0.99 0.66 1.98 1 3 C-0.32 3.99 -1.64 4.98 -3 6 C-4.32 5.34 -5.64 4.68 -7 4 C-6.67 3.01 -6.34 2.02 -6 1 C-5.67 1.66 -5.34 2.32 -5 3 C-3.35 2.67 -1.7 2.34 0 2 C0 1.34 0 0.68 0 0 Z " fill="#5666A5" transform="translate(361,172)"/>
<path d="M0 0 C1.32 1.32 2.64 2.64 4 4 C2.68 4.99 1.36 5.98 0 7 C-0.66 6.67 -1.32 6.34 -2 6 C-2 5.34 -2 4.68 -2 4 C-1.34 4 -0.68 4 0 4 C0 2.68 0 1.36 0 0 Z " fill="#6575AC" transform="translate(359,393)"/>
<path d="M0 0 C2.475 0.99 2.475 0.99 5 2 C5 2.99 5 3.98 5 5 C2.69 4.67 0.38 4.34 -2 4 C-1.34 2.68 -0.68 1.36 0 0 Z " fill="#606EAB" transform="translate(328,305)"/>
<path d="M0 0 C0.66 0 1.32 0 2 0 C2 0.66 2 1.32 2 2 C2.66 2 3.32 2 4 2 C4 1.34 4 0.68 4 0 C4.66 0 5.32 0 6 0 C6 0.99 6 1.98 6 3 C4.68 3 3.36 3 2 3 C1.67 3.99 1.34 4.98 1 6 C0.67 6 0.34 6 0 6 C0 4.02 0 2.04 0 0 Z " fill="#0B857D" transform="translate(131,299)"/>
<path d="M0 0 C2.475 0.99 2.475 0.99 5 2 C4.34 3.32 3.68 4.64 3 6 C1.68 5.67 0.36 5.34 -1 5 C-1 4.34 -1 3.68 -1 3 C-0.34 3 0.32 3 1 3 C0.67 2.01 0.34 1.02 0 0 Z " fill="#4F5FA4" transform="translate(288,281)"/>
<path d="M0 0 C0.33 0.66 0.66 1.32 1 2 C3.52733235 2.65555119 3.52733235 2.65555119 6 3 C5.67 3.99 5.34 4.98 5 6 C1.62496331 4.8141763 -0.64722731 3.72426311 -3 1 C-2.01 0.67 -1.02 0.34 0 0 Z " fill="#7B87BA" transform="translate(182,197)"/>
<path d="M0 0 C3.37503669 1.1858237 5.64722731 2.27573689 8 5 C5.6875 5.3125 5.6875 5.3125 3 5 C1.1875 2.5 1.1875 2.5 0 0 Z " fill="#6DB6B4" transform="translate(134,196)"/>
<path d="M0 0 C-6.75 4 -6.75 4 -9 4 C-9 2.68 -9 1.36 -9 0 C-2.25 -1.125 -2.25 -1.125 0 0 Z " fill="#9AA2C8" transform="translate(356,179)"/>
<path d="M0 0 C2.475 0.99 2.475 0.99 5 2 C5 2.66 5 3.32 5 4 C4.01 4 3.02 4 2 4 C2 4.66 2 5.32 2 6 C1.34 6 0.68 6 0 6 C0 4.02 0 2.04 0 0 Z " fill="#7880A8" transform="translate(416,136)"/>
<path d="M0 0 C0.33 0.99 0.66 1.98 1 3 C-2.465 4.485 -2.465 4.485 -6 6 C-4.75453595 2.26360784 -3.36595047 1.81243487 0 0 Z " fill="#2C3982" transform="translate(152,318)"/>
<path d="M0 0 C-1.32 0.33 -2.64 0.66 -4 1 C-4 1.66 -4 2.32 -4 3 C-5.32 3.33 -6.64 3.66 -8 4 C-8 2.68 -8 1.36 -8 0 C-2.25 -1.125 -2.25 -1.125 0 0 Z " fill="#6BB4B1" transform="translate(152,294)"/>
<path d="M0 0 C2.31 0.33 4.62 0.66 7 1 C2.25 5 2.25 5 0 5 C0 3.35 0 1.7 0 0 Z " fill="#6DB7B6" transform="translate(200,259)"/>
<path d="M0 0 C2.97 0.495 2.97 0.495 6 1 C4.75 2.5 4.75 2.5 3 4 C1.68 4 0.36 4 -1 4 C-0.67 2.68 -0.34 1.36 0 0 Z " fill="#4EA6A0" transform="translate(214,251)"/>
<path d="M0 0 C-4.625 3 -4.625 3 -8 3 C-8 2.01 -8 1.02 -8 0 C-2.25 -1.125 -2.25 -1.125 0 0 Z " fill="#8795B8" transform="translate(270,453)"/>
<path d="M0 0 C1.485 0.99 1.485 0.99 3 2 C3 2.66 3 3.32 3 4 C3.66 4.66 4.32 5.32 5 6 C3.35 6.66 1.7 7.32 0 8 C0.33 6.02 0.66 4.04 1 2 C0.34 1.67 -0.32 1.34 -1 1 C-0.67 0.67 -0.34 0.34 0 0 Z " fill="#4E61A2" transform="translate(298,427)"/>
<path d="M0 0 C2.475 0.495 2.475 0.495 5 1 C5 1.66 5 2.32 5 3 C3.35 3.66 1.7 4.32 0 5 C0 3.35 0 1.7 0 0 Z " fill="#5C6CA4" transform="translate(317,419)"/>
<path d="M0 0 C2.3431213 0.25561323 4.67843403 0.59270772 7 1 C7.33 1.66 7.66 2.32 8 3 C5.39417629 3.93065133 4.35801776 4.14917407 1.75 3.0625 C1.1725 2.711875 0.595 2.36125 0 2 C0 1.34 0 0.68 0 0 Z " fill="#6F7DAE" transform="translate(110,379)"/>
<path d="M0 0 C1.65 0 3.3 0 5 0 C2.64722731 2.72426311 0.37503669 3.8141763 -3 5 C-2.67 4.01 -2.34 3.02 -2 2 C-1.34 2 -0.68 2 0 2 C0 1.34 0 0.68 0 0 Z " fill="#96A1C3" transform="translate(405,368)"/>
<path d="M0 0 C2.97 0.495 2.97 0.495 6 1 C3.82575883 3.50037734 2.26954202 4.43628586 -1 5 C-0.67 3.35 -0.34 1.7 0 0 Z " fill="#6BB4AF" transform="translate(85,329)"/>
<path d="M0 0 C0.99 0 1.98 0 3 0 C3 0.66 3 1.32 3 2 C4.32 2.33 5.64 2.66 7 3 C6.67 3.66 6.34 4.32 6 5 C3.5625 4.1875 3.5625 4.1875 1 3 C0.67 2.01 0.34 1.02 0 0 Z " fill="#71B1AE" transform="translate(214,244)"/>
<path d="M0 0 C2.4375 0.8125 2.4375 0.8125 5 2 C5.33 2.99 5.66 3.98 6 5 C4.02 4.34 2.04 3.68 0 3 C0 2.01 0 1.02 0 0 Z " fill="#7583B2" transform="translate(143,175)"/>
<path d="M0 0 C0 3.10551666 -0.5393715 4.35261084 -2 7 C-3.32 6.34 -4.64 5.68 -6 5 C-4.02 3.35 -2.04 1.7 0 0 Z " fill="#203480" transform="translate(102,126)"/>
<path d="" fill="#FFFFFF" transform="translate(0,0)"/>
<path d="" fill="#FFFFFF" transform="translate(0,0)"/>
<path d="" fill="#FFFFFF" transform="translate(0,0)"/>
<path d="" fill="#FFFFFF" transform="translate(0,0)"/>
<path d="" fill="#FFFFFF" transform="translate(0,0)"/>
<path d="" fill="#FFFFFF" transform="translate(0,0)"/>
<path d="" fill="#FFFFFF" transform="translate(0,0)"/>
<path d="" fill="#FFFFFF" transform="translate(0,0)"/>
<path d="" fill="#FFFFFF" transform="translate(0,0)"/>
<path d="" fill="#FFFFFF" transform="translate(0,0)"/>
<path d="" fill="#FFFFFF" transform="translate(0,0)"/>
<path d="" fill="#FFFFFF" transform="translate(0,0)"/>
<path d="" fill="#FFFFFF" transform="translate(0,0)"/>
<path d="" fill="#FFFFFF" transform="translate(0,0)"/>
<path d="" fill="#FFFFFF" transform="translate(0,0)"/>
<path d="" fill="#FFFFFF" transform="translate(0,0)"/>
<path d="" fill="#FFFFFF" transform="translate(0,0)"/>
<path d="" fill="#FFFFFF" transform="translate(0,0)"/>
<path d="" fill="#FFFFFF" transform="translate(0,0)"/>
<path d="" fill="#FFFFFF" transform="translate(0,0)"/>
<path d="" fill="#FFFFFF" transform="translate(0,0)"/>
<path d="" fill="#FFFFFF" transform="translate(0,0)"/>
<path d="" fill="#FFFFFF" transform="translate(0,0)"/>
<path d="" fill="#FFFFFF" transform="translate(0,0)"/>
<path d="" fill="#FFFFFF" transform="translate(0,0)"/>
<path d="" fill="#FFFFFF" transform="translate(0,0)"/>
<path d="" fill="#FFFFFF" transform="translate(0,0)"/>
<path d="" fill="#FFFFFF" transform="translate(0,0)"/>
<path d="" fill="#FFFFFF" transform="translate(0,0)"/>
<path d="" fill="#FFFFFF" transform="translate(0,0)"/>
<path d="" fill="#FFFFFF" transform="translate(0,0)"/>
<path d="" fill="#FFFFFF" transform="translate(0,0)"/>
<path d="" fill="#FFFFFF" transform="translate(0,0)"/>
<path d="" fill="#FFFFFF" transform="translate(0,0)"/>
<path d="" fill="#FFFFFF" transform="translate(0,0)"/>
<path d="" fill="#FFFFFF" transform="translate(0,0)"/>
<path d="" fill="#FFFFFF" transform="translate(0,0)"/>
<path d="" fill="#FFFFFF" transform="translate(0,0)"/>
<path d="" fill="#FFFFFF" transform="translate(0,0)"/>
<path d="" fill="#FFFFFF" transform="translate(0,0)"/>
<path d="" fill="#FFFFFF" transform="translate(0,0)"/>
<path d="" fill="#FFFFFF" transform="translate(0,0)"/>
<path d="" fill="#FFFFFF" transform="translate(0,0)"/>
<path d="" fill="#FFFFFF" transform="translate(0,0)"/>
<path d="" fill="#FFFFFF" transform="translate(0,0)"/>
<path d="" fill="#FFFFFF" transform="translate(0,0)"/>
<path d="" fill="#FFFFFF" transform="translate(0,0)"/>
<path d="" fill="#FFFFFF" transform="translate(0,0)"/>
<path d="" fill="#FFFFFF" transform="translate(0,0)"/>
<path d="" fill="#FFFFFF" transform="translate(0,0)"/>
<path d="" fill="#FFFFFF" transform="translate(0,0)"/>
<path d="" fill="#FFFFFF" transform="translate(0,0)"/>
<path d="" fill="#FFFFFF" transform="translate(0,0)"/>
<path d="" fill="#FFFFFF" transform="translate(0,0)"/>
<path d="" fill="#FFFFFF" transform="translate(0,0)"/>
</svg>
