<?xml version="1.0" encoding="utf-8"?>
<svg xmlns="http://www.w3.org/2000/svg" viewBox="0 0 500 500">
  <ellipse style="fill: rgb(216, 216, 216); stroke: rgb(0, 0, 0); stroke-width: 0.988;" cx="250.728" cy="251.269" rx="249.426" ry="246.078"/>
  <g id="Layer_1" transform="matrix(1.146678, 0.01399, 0, 1.153405, -333.544464, -32.181656)" style="">
    <path fill="#FFFFFF" opacity="0.000000" stroke="none" d="M 550.551 489.207 C 453.383 489.207 356.459 489.207 259.535 489.207 C 259.535 322.54 259.535 155.873 259.535 -10.793 C 426.202 -10.793 592.869 -10.793 759.535 -10.793 C 759.535 155.873 759.535 322.54 759.535 489.207 C 689.955 489.207 620.375 489.207 550.551 489.207 M 550.558 51.431 C 550.402 51.384 550.245 51.337 549.874 51.201 C 549.874 51.201 549.641 51.2 549.505 50.923 C 549.24 50.784 548.974 50.646 548.641 50.6 C 548.641 50.6 548.744 50.647 548.701 50.347 C 548.509 50.284 548.318 50.222 548.13 50.217 C 548.13 50.217 548.186 50.203 548.016 49.924 C 547.443 49.631 546.87 49.338 546.218 49.113 C 546.218 49.113 546.3 49.178 546.266 48.877 C 546.073 48.82 545.88 48.762 545.689 48.754 C 545.689 48.754 545.736 48.743 545.556 48.465 C 544.962 48.184 544.368 47.903 543.742 47.737 C 543.742 47.737 543.861 47.75 543.774 47.471 C 543.599 47.392 543.423 47.314 543.094 46.941 C 535.921 42.806 528.748 38.671 521.321 34.25 C 518.937 33.272 520.344 35.383 520.344 35.707 C 520.272 97.667 520.277 159.627 520.285 221.587 C 520.286 222.167 520.376 222.747 520.451 223.643 C 520.905 223.107 521.108 222.868 521.633 222.502 C 522.691 221.972 523.788 221.507 524.801 220.901 C 538.906 212.475 553.001 204.03 567.096 195.588 C 599.799 175.999 632.5 156.409 665.203 136.82 C 670.024 133.933 674.85 131.054 679.913 128.028 C 679.229 127.57 678.851 127.291 678.448 127.052 C 647.603 108.773 616.764 90.483 585.904 72.229 C 575.118 65.849 564.278 59.557 553.265 53.11 C 553.265 53.11 553.046 53.041 553.033 53.114 C 553.033 53.114 553.106 53.105 552.95 52.83 C 552.48 52.6 552.01 52.37 551.543 52.181 C 551.543 52.181 551.582 52.172 551.42 51.913 C 551.137 51.804 550.854 51.694 550.57 51.68 C 550.57 51.68 550.665 51.67 550.558 51.431 M 340.446 324.975 C 340.707 324.732 340.969 324.488 341.566 324.206 C 388.435 295.802 435.303 267.399 482.399 238.857 C 473.643 233.62 465.119 228.524 456.599 223.422 C 431.687 208.503 406.784 193.57 381.862 178.667 C 368.399 170.617 354.905 162.619 341.226 154.339 C 340.847 154.15 340.468 153.961 339.713 153.959 C 339.681 154.281 339.621 154.603 339.621 154.925 C 339.616 211.017 339.613 267.108 339.638 323.2 C 339.638 323.821 339.995 324.441 340.446 324.975 M 499.365 445.281 C 499.365 381.716 499.365 318.152 499.365 254.154 C 498.718 254.756 498.445 255.01 497.884 255.437 C 495.889 256.601 493.859 257.708 491.906 258.938 C 485.7 262.85 479.589 266.917 473.315 270.717 C 467.353 274.328 461.161 277.56 455.194 281.164 C 423.064 300.572 390.972 320.044 358.869 339.497 C 352.738 343.212 346.616 346.944 340.323 350.77 C 340.961 351.19 341.354 351.469 341.766 351.716 C 365.564 366 389.365 380.28 413.164 394.562 C 430.514 404.975 447.86 415.394 465.213 425.803 C 476.251 432.424 487.297 439.033 498.57 445.798 C 498.793 445.936 499.016 446.074 499.454 446.213 C 499.508 446.167 499.616 446.104 499.608 446.077 C 499.57 445.956 499.5 445.845 499.365 445.281 M 497.03 34.661 C 496.892 34.797 496.754 34.934 496.277 35.066 C 444.318 66.03 392.36 96.993 340.188 128.084 C 340.996 128.639 341.441 128.983 341.921 129.27 C 365.092 143.118 388.27 156.957 411.44 170.807 C 419.351 175.537 427.247 180.293 435.147 185.04 C 444.552 190.692 453.939 196.374 463.367 201.987 C 467.429 204.405 471.617 206.61 475.673 209.035 C 483.096 213.474 490.463 218.005 498.215 222.685 C 500.4 223.355 499.283 221.505 499.284 221.019 C 499.35 158.792 499.351 96.564 499.351 34.336 C 499.351 34.053 499.307 33.77 499.261 33.218 C 498.437 33.8 497.867 34.202 497.323 34.619 C 497.323 34.619 497.321 34.59 497.03 34.661 M 521.902 445.319 C 574.601 413.72 627.3 382.121 680.138 350.439 C 663.124 340.203 646.362 330.12 629.602 320.036 C 599.435 301.886 569.274 283.728 539.099 265.592 C 533.285 262.097 527.418 258.689 521.32 254.951 C 519.184 254.384 520.326 256.143 520.325 256.623 C 520.265 319.05 520.269 381.476 520.27 443.903 C 520.27 444.606 520.27 445.31 520.27 446.379 C 520.881 445.902 521.232 445.629 521.902 445.319 Z" style="stroke-width: 0.488;"/>
    <path fill="#1F3890" opacity="1.000000" stroke="none" d="M 521.575 255.241 C 527.418 258.689 533.285 262.097 539.099 265.592 C 569.274 283.728 599.435 301.886 629.602 320.036 C 646.362 330.12 663.124 340.203 680.138 350.439 C 627.3 382.121 574.601 413.72 521.543 445.23 C 521.044 443.552 520.784 441.963 520.783 440.375 C 520.762 379.684 520.762 318.993 520.799 258.302 C 520.8 257.282 521.305 256.262 521.575 255.241 Z" style="stroke-width: 0.488;"/>
    <path fill="#1F3890" opacity="1.000000" stroke="none" d="M 498.34 445.647 C 487.297 439.033 476.251 432.424 465.213 425.803 C 447.86 415.394 430.514 404.975 413.164 394.562 C 389.365 380.28 365.564 366 341.766 351.716 C 341.354 351.469 340.961 351.19 340.323 350.77 C 346.616 346.944 352.738 343.212 358.869 339.497 C 390.972 320.044 423.064 300.572 455.194 281.164 C 461.161 277.56 467.353 274.328 473.315 270.717 C 479.589 266.917 485.7 262.85 491.906 258.938 C 493.859 257.708 495.889 256.601 498.198 255.479 C 498.608 256.394 498.789 257.268 498.79 258.142 C 498.803 319.699 498.805 381.257 498.784 442.815 C 498.784 443.759 498.494 444.703 498.34 445.647 Z" style="stroke-width: 0.488;"/>
    <path fill="#1F3890" opacity="1.000000" stroke="none" d="M 553.463 53.225 C 564.278 59.557 575.118 65.849 585.904 72.229 C 616.764 90.483 647.603 108.773 678.448 127.052 C 678.851 127.291 679.229 127.57 679.913 128.028 C 674.85 131.054 670.024 133.933 665.203 136.82 C 632.5 156.409 599.799 175.999 567.096 195.588 C 553.001 204.03 538.906 212.475 524.801 220.901 C 523.788 221.507 522.691 221.972 521.315 222.429 C 520.919 221.8 520.771 221.245 520.771 220.69 C 520.762 159.415 520.76 98.139 520.798 36.864 C 520.798 36.087 521.305 35.312 521.575 34.536 C 528.748 38.671 535.921 42.806 543.228 47.218 C 543.528 47.58 543.694 47.665 543.861 47.75 C 543.861 47.75 543.742 47.737 543.801 47.858 C 544.485 48.233 545.111 48.488 545.736 48.743 C 545.736 48.743 545.689 48.754 545.745 48.857 C 545.968 49.033 546.134 49.105 546.3 49.178 C 546.3 49.178 546.218 49.113 546.268 49.264 C 546.94 49.678 547.563 49.941 548.186 50.203 C 548.186 50.203 548.13 50.217 548.187 50.318 C 548.41 50.494 548.577 50.571 548.744 50.647 C 548.744 50.647 548.641 50.6 548.704 50.719 C 549.058 50.959 549.35 51.08 549.641 51.2 C 549.641 51.2 549.874 51.201 550.046 51.347 C 550.355 51.581 550.504 51.641 550.665 51.67 C 550.665 51.67 550.57 51.68 550.633 51.78 C 550.991 51.978 551.286 52.075 551.582 52.172 C 551.582 52.172 551.543 52.181 551.599 52.319 C 552.138 52.674 552.622 52.889 553.106 53.105 C 553.106 53.105 553.033 53.114 553.059 53.175 C 553.211 53.232 553.337 53.229 553.463 53.225 Z" style="stroke-width: 0.488;"/>
    <path fill="#1F3890" opacity="1.000000" stroke="none" d="M 497.853 222.498 C 490.463 218.005 483.096 213.474 475.673 209.035 C 471.617 206.61 467.429 204.405 463.367 201.987 C 453.939 196.374 444.552 190.692 435.147 185.04 C 427.247 180.293 419.351 175.537 411.44 170.807 C 388.27 156.957 365.092 143.118 341.921 129.27 C 341.441 128.983 340.996 128.639 340.188 128.084 C 392.36 96.993 444.318 66.03 496.587 35.021 C 497.039 34.847 497.18 34.718 497.321 34.59 C 497.321 34.59 497.323 34.619 497.519 34.609 C 498.078 35.515 498.755 36.429 498.758 37.345 C 498.817 58.585 498.804 79.825 498.804 101.064 C 498.804 140.533 498.81 180.001 498.764 219.47 C 498.762 220.48 498.17 221.489 497.853 222.498 Z" style="stroke-width: 0.488;"/>
    <path fill="#008985" opacity="1.000000" stroke="none" d="M 341.425 154.598 C 354.905 162.619 368.399 170.617 381.862 178.667 C 406.784 193.57 431.687 208.503 456.599 223.422 C 465.119 228.524 473.643 233.62 482.399 238.857 C 435.303 267.399 388.435 295.802 341.228 324.095 C 340.79 323.111 340.602 322.238 340.601 321.366 C 340.587 266.798 340.583 212.231 340.621 157.663 C 340.622 156.641 341.146 155.619 341.425 154.598 Z" style="stroke-width: 0.488;"/>
    <path fill="#01046E" opacity="1.000000" stroke="none" d="M 498.034 222.591 C 498.17 221.489 498.762 220.48 498.764 219.47 C 498.81 180.001 498.804 140.533 498.804 101.064 C 498.804 79.825 498.817 58.585 498.758 37.345 C 498.755 36.429 498.078 35.515 497.506 34.602 C 497.867 34.202 498.437 33.8 499.261 33.218 C 499.307 33.77 499.351 34.053 499.351 34.336 C 499.351 96.564 499.35 158.792 499.284 221.019 C 499.283 221.505 500.4 223.355 498.034 222.591 Z" style="stroke-width: 0.488;"/>
    <path fill="#01046E" opacity="1.000000" stroke="none" d="M 521.447 255.096 C 521.305 256.262 520.8 257.282 520.799 258.302 C 520.762 318.993 520.762 379.684 520.783 440.375 C 520.784 441.963 521.044 443.552 521.383 445.248 C 521.232 445.629 520.881 445.902 520.27 446.379 C 520.27 445.31 520.27 444.606 520.27 443.903 C 520.269 381.476 520.265 319.05 520.325 256.623 C 520.326 256.143 519.184 254.384 521.447 255.096 Z" style="stroke-width: 0.488;"/>
    <path fill="#01046E" opacity="1.000000" stroke="none" d="M 498.455 445.722 C 498.494 444.703 498.784 443.759 498.784 442.815 C 498.805 381.257 498.803 319.699 498.79 258.142 C 498.789 257.268 498.608 256.394 498.341 255.393 C 498.445 255.01 498.718 254.756 499.365 254.154 C 499.365 318.152 499.365 381.716 499.347 445.624 C 499.3 446.048 499.269 446.13 499.239 446.212 C 499.016 446.074 498.793 445.936 498.455 445.722 Z" style="stroke-width: 0.488;"/>
    <path fill="#01046E" opacity="1.000000" stroke="none" d="M 521.448 34.393 C 521.305 35.312 520.798 36.087 520.798 36.864 C 520.76 98.139 520.762 159.415 520.771 220.69 C 520.771 221.245 520.919 221.8 521.154 222.492 C 521.108 222.868 520.905 223.107 520.451 223.643 C 520.376 222.747 520.286 222.167 520.285 221.587 C 520.277 159.627 520.272 97.667 520.344 35.707 C 520.344 35.383 518.937 33.272 521.448 34.393 Z" style="stroke-width: 0.488;"/>
    <path fill="#00675F" opacity="1.000000" stroke="none" d="M 341.326 154.468 C 341.146 155.619 340.622 156.641 340.621 157.663 C 340.583 212.231 340.587 266.798 340.601 321.366 C 340.602 322.238 340.79 323.111 341.06 324.114 C 340.969 324.488 340.707 324.732 340.284 324.797 C 340.116 321.284 340.105 317.948 340.105 314.613 C 340.098 260.999 340.093 207.386 340.088 153.772 C 340.468 153.961 340.847 154.15 341.326 154.468 Z" style="stroke-width: 0.488;"/>
    <path fill="#79C6C6" opacity="1.000000" stroke="none" d="M 339.901 153.866 C 340.093 207.386 340.098 260.999 340.105 314.613 C 340.105 317.948 340.116 321.284 340.154 324.84 C 339.995 324.441 339.638 323.821 339.638 323.2 C 339.613 267.108 339.616 211.017 339.621 154.925 C 339.621 154.603 339.681 154.281 339.901 153.866 Z" style="stroke-width: 0.488;"/>
    <path fill="#01046E" opacity="1.000000" stroke="none" d="M 548.101 50.064 C 547.563 49.941 546.94 49.678 546.307 49.23 C 546.87 49.338 547.443 49.631 548.101 50.064 Z" style="stroke-width: 0.488;"/>
    <path fill="#01046E" opacity="1.000000" stroke="none" d="M 545.646 48.604 C 545.111 48.488 544.485 48.233 543.816 47.8 C 544.368 47.903 544.962 48.184 545.646 48.604 Z" style="stroke-width: 0.488;"/>
    <path fill="#01046E" opacity="1.000000" stroke="none" d="M 553.028 52.967 C 552.622 52.889 552.138 52.674 551.597 52.299 C 552.01 52.37 552.48 52.6 553.028 52.967 Z" style="stroke-width: 0.488;"/>
    <path fill="#01046E" opacity="1.000000" stroke="none" d="M 549.573 51.061 C 549.35 51.08 549.058 50.959 548.738 50.673 C 548.974 50.646 549.24 50.784 549.573 51.061 Z" style="stroke-width: 0.488;"/>
    <path fill="#01046E" opacity="1.000000" stroke="none" d="M 551.501 52.043 C 551.286 52.075 550.991 51.978 550.634 51.733 C 550.854 51.694 551.137 51.804 551.501 52.043 Z" style="stroke-width: 0.488;"/>
    <path fill="#C0CAE0" opacity="1.000000" stroke="none" d="M 499.346 446.212 C 499.269 446.13 499.3 446.048 499.386 445.848 C 499.5 445.845 499.57 445.956 499.608 446.077 C 499.616 446.104 499.508 446.167 499.346 446.212 Z" style="stroke-width: 0.488;"/>
    <path fill="#01046E" opacity="1.000000" stroke="none" d="M 553.364 53.168 C 553.337 53.229 553.211 53.232 553.065 53.139 C 553.046 53.041 553.265 53.11 553.364 53.168 Z" style="stroke-width: 0.488;"/>
    <path fill="#01046E" opacity="1.000000" stroke="none" d="M 550.611 51.551 C 550.504 51.641 550.355 51.581 550.154 51.391 C 550.245 51.337 550.402 51.384 550.611 51.551 Z" style="stroke-width: 0.488;"/>
    <path fill="#01046E" opacity="1.000000" stroke="none" d="M 548.723 50.497 C 548.577 50.571 548.41 50.494 548.185 50.289 C 548.318 50.222 548.509 50.284 548.723 50.497 Z" style="stroke-width: 0.488;"/>
    <path fill="#01046E" opacity="1.000000" stroke="none" d="M 546.283 49.027 C 546.134 49.105 545.968 49.033 545.745 48.833 C 545.88 48.762 546.073 48.82 546.283 49.027 Z" style="stroke-width: 0.488;"/>
    <path fill="#01046E" opacity="1.000000" stroke="none" d="M 543.817 47.61 C 543.694 47.665 543.528 47.58 543.305 47.365 C 543.423 47.314 543.599 47.392 543.817 47.61 Z" style="stroke-width: 0.488;"/>
    <path fill="#01046E" opacity="1.000000" stroke="none" d="M 497.176 34.626 C 497.18 34.718 497.039 34.847 496.756 35.023 C 496.754 34.934 496.892 34.797 497.176 34.626 Z" style="stroke-width: 0.488;"/>
  </g>
</svg>